<?xml version="1.0" encoding="UTF-8" standalone="no"?>
<!DOCTYPE svg PUBLIC "-//W3C//DTD SVG 1.1//EN"
 "http://www.w3.org/Graphics/SVG/1.1/DTD/svg11.dtd">
<!-- Generated by graphviz version 2.43.0 (0)
 -->
<!-- Title: %3 Pages: 1 -->
<svg width="1264pt" height="80pt"
 viewBox="0.00 0.00 1264.00 80.00" xmlns="http://www.w3.org/2000/svg" xmlns:xlink="http://www.w3.org/1999/xlink">
<g id="graph0" class="graph" transform="scale(1 1) rotate(0) translate(4 76)">
<title>%3</title>
<polygon fill="white" stroke="transparent" points="-4,4 -4,-76 1260,-76 1260,4 -4,4"/>
<!-- Client -->
<g id="node1" class="node">
<title>Client</title>
<polygon fill="none" stroke="black" points="59,-37 0,-37 0,-1 59,-1 59,-37"/>
<text text-anchor="middle" x="29.5" y="-15.3" font-family="Times,serif" font-size="14.00">Client</text>
</g>
<!-- Router -->
<g id="node2" class="node">
<title>Router</title>
<polygon fill="none" stroke="black" points="260,-72 195,-72 195,-36 260,-36 260,-72"/>
<text text-anchor="middle" x="227.5" y="-50.3" font-family="Times,serif" font-size="14.00">Router</text>
</g>
<!-- Client&#45;&gt;Router -->
<g id="edge1" class="edge">
<title>Client&#45;&gt;Router</title>
<path fill="none" stroke="black" d="M59,-24.09C92,-29.98 146.65,-39.74 184.51,-46.5"/>
<polygon fill="black" stroke="black" points="184.25,-50.01 194.71,-48.32 185.48,-43.12 184.25,-50.01"/>
<text text-anchor="middle" x="121" y="-45.8" font-family="Times,serif" font-size="14.00">POST /todos</text>
</g>
<!-- Controller -->
<g id="node3" class="node">
<title>Controller</title>
<polygon fill="none" stroke="black" points="545,-37 456,-37 456,-1 545,-1 545,-37"/>
<text text-anchor="middle" x="500.5" y="-15.3" font-family="Times,serif" font-size="14.00">Controller</text>
</g>
<!-- Router&#45;&gt;Controller -->
<g id="edge2" class="edge">
<title>Router&#45;&gt;Controller</title>
<path fill="none" stroke="black" d="M260.12,-49.92C305.6,-44.04 390.09,-33.13 445.56,-25.97"/>
<polygon fill="black" stroke="black" points="446.09,-29.43 455.56,-24.67 445.2,-22.48 446.09,-29.43"/>
<text text-anchor="middle" x="364" y="-48.8" font-family="Times,serif" font-size="14.00">Route to CreateTodo</text>
</g>
<!-- Controller&#45;&gt;Client -->
<g id="edge9" class="edge">
<title>Controller&#45;&gt;Client</title>
<path fill="none" stroke="black" d="M455.9,-17.66C389.85,-15.63 272,-12 272,-12 272,-12 183,-12 183,-12 183,-12 114.45,-15.15 69.27,-17.22"/>
<polygon fill="black" stroke="black" points="69.01,-13.73 59.18,-17.68 69.33,-20.72 69.01,-13.73"/>
<text text-anchor="middle" x="227.5" y="-15.8" font-family="Times,serif" font-size="14.00">201 Created</text>
</g>
<!-- Service -->
<g id="node4" class="node">
<title>Service</title>
<polygon fill="none" stroke="black" points="773,-37 703,-37 703,-1 773,-1 773,-37"/>
<text text-anchor="middle" x="738" y="-15.3" font-family="Times,serif" font-size="14.00">Service</text>
</g>
<!-- Controller&#45;&gt;Service -->
<g id="edge3" class="edge">
<title>Controller&#45;&gt;Service</title>
<path fill="none" stroke="black" d="M545.24,-19C587.18,-19 650.18,-19 692.4,-19"/>
<polygon fill="black" stroke="black" points="692.66,-22.5 702.66,-19 692.66,-15.5 692.66,-22.5"/>
<text text-anchor="middle" x="624" y="-22.8" font-family="Times,serif" font-size="14.00">CreateTodo(title)</text>
</g>
<!-- Service&#45;&gt;Controller -->
<g id="edge8" class="edge">
<title>Service&#45;&gt;Controller</title>
<path fill="none" stroke="black" d="M702.9,-6.54C693.09,-2.96 685,0 685,0 685,0 563,0 563,0 563,0 559.81,-0.99 554.88,-2.51"/>
<polygon fill="black" stroke="black" points="553.73,0.8 545.21,-5.5 555.8,-5.89 553.73,0.8"/>
<text text-anchor="middle" x="624" y="-3.8" font-family="Times,serif" font-size="14.00">nil</text>
</g>
<!-- Repository -->
<g id="node5" class="node">
<title>Repository</title>
<polygon fill="none" stroke="black" points="994,-37 900,-37 900,-1 994,-1 994,-37"/>
<text text-anchor="middle" x="947" y="-15.3" font-family="Times,serif" font-size="14.00">Repository</text>
</g>
<!-- Service&#45;&gt;Repository -->
<g id="edge4" class="edge">
<title>Service&#45;&gt;Repository</title>
<path fill="none" stroke="black" d="M773.18,-19C804.78,-19 852.32,-19 889.55,-19"/>
<polygon fill="black" stroke="black" points="889.75,-22.5 899.75,-19 889.75,-15.5 889.75,-22.5"/>
<text text-anchor="middle" x="836.5" y="-22.8" font-family="Times,serif" font-size="14.00">Create(todo)</text>
</g>
<!-- Repository&#45;&gt;Service -->
<g id="edge7" class="edge">
<title>Repository&#45;&gt;Service</title>
<path fill="none" stroke="black" d="M899.83,-5.29C889.74,-2.3 882,0 882,0 882,0 791,0 791,0 791,0 787.68,-1.21 782.71,-3.03"/>
<polygon fill="black" stroke="black" points="781.3,0.18 773.1,-6.54 783.7,-6.39 781.3,0.18"/>
<text text-anchor="middle" x="836.5" y="-3.8" font-family="Times,serif" font-size="14.00">nil</text>
</g>
<!-- Database -->
<g id="node6" class="node">
<title>Database</title>
<polygon fill="none" stroke="black" points="1256,-37 1173,-37 1173,-1 1256,-1 1256,-37"/>
<text text-anchor="middle" x="1214.5" y="-15.3" font-family="Times,serif" font-size="14.00">Database</text>
</g>
<!-- Repository&#45;&gt;Database -->
<g id="edge5" class="edge">
<title>Repository&#45;&gt;Database</title>
<path fill="none" stroke="black" d="M994.25,-19C1041.31,-19 1114.06,-19 1162.7,-19"/>
<polygon fill="black" stroke="black" points="1163,-22.5 1173,-19 1163,-15.5 1163,-22.5"/>
<text text-anchor="middle" x="1083.5" y="-22.8" font-family="Times,serif" font-size="14.00">INSERT INTO todos</text>
</g>
<!-- Database&#45;&gt;Repository -->
<g id="edge6" class="edge">
<title>Database&#45;&gt;Repository</title>
<path fill="none" stroke="black" d="M1172.87,-5.8C1162.89,-2.56 1155,0 1155,0 1155,0 1012,0 1012,0 1012,0 1008.83,-0.94 1003.89,-2.41"/>
<polygon fill="black" stroke="black" points="1002.76,0.91 994.17,-5.29 1004.76,-5.8 1002.76,0.91"/>
<text text-anchor="middle" x="1083.5" y="-3.8" font-family="Times,serif" font-size="14.00">OK</text>
</g>
</g>
</svg>
